[h264 @ 0x55b59ff169c0] Reinit context to 1280x720, pix_fmt: yuv420p
Input #0, mov,mp4,m4a,3gp,3g2,mj2, from '/var/www/html/project/media/video/original/Incendio_Prova.mp4':
  Metadata:
    major_brand     : mp42
    minor_version   : 1
    compatible_brands: isommp41mp42
    creation_time   : 2025-09-16T12:27:02.000000Z
  Duration: 00:00:18.04, start: 0.000000, bitrate: 4195 kb/s
    Stream #0:0(eng): Audio: aac (LC) (mp4a / 0x6134706D), 48000 Hz, stereo, fltp, 79 kb/s (default)
    Metadata:
      creation_time   : 2025-09-16T12:27:02.000000Z
      handler_name    : Core Media Audio
    Stream #0:1(und): Video: h264 (High), 1 reference frame (avc1 / 0x31637661), yuv420p(tv, bt709, progressive, left), 1280x720 [SAR 1:1 DAR 16:9], 4054 kb/s, 25 fps, 25 tbr, 25k tbn, 50k tbc (default)
    Metadata:
      creation_time   : 2025-09-16T12:27:02.000000Z
      handler_name    : Core Media Video
Input #1, png_pipe, from '/var/www/html/project/static/images/templates/logo.png':
  Duration: N/A, bitrate: N/A
    Stream #1:0: Video: png, 1 reference frame, rgba(pc), 1920x1080 [SAR 2835:2835 DAR 16:9], 25 tbr, 25 tbn, 25 tbc
[h264 @ 0x55b59ff65d40] Reinit context to 1280x720, pix_fmt: yuv420p
Input #2, mov,mp4,m4a,3gp,3g2,mj2, from '/var/www/html/project/static/images/templates/Codino.mp4':
  Metadata:
    major_brand     : mp42
    minor_version   : 1
    compatible_brands: isommp41mp42
    creation_time   : 2021-07-11T07:02:58.000000Z
  Duration: 00:00:02.00, start: 0.000000, bitrate: 1007 kb/s
    Stream #2:0(ita): Audio: aac (LC) (mp4a / 0x6134706D), 44100 Hz, stereo, fltp, 102 kb/s (default)
    Metadata:
      creation_time   : 2021-07-11T07:02:58.000000Z
      handler_name    : Core Media Audio
    Stream #2:1(und): Video: h264 (High), 1 reference frame (avc1 / 0x31637661), yuv420p(tv, bt709, progressive, left), 1280x720 [SAR 1:1 DAR 16:9], 813 kb/s, 25 fps, 25 tbr, 25k tbn, 50k tbc (default)
    Metadata:
      creation_time   : 2021-07-11T07:02:58.000000Z
      handler_name    : Core Media Video
[Parsed_scale_0 @ 0x55b59ff6e440] w:1280 h:720 flags:'bilinear' interl:0
[Parsed_scale_2 @ 0x55b59ff5dc40] w:1280 h:720 flags:'bilinear' interl:0
[Parsed_scale_4 @ 0x55b59ffa3e80] w:1280 h:720 flags:'bilinear' interl:0
Stream mapping:
  Stream #0:0 (aac) -> concat:in0:a0
  Stream #0:1 (h264) -> scale
  Stream #1:0 (png) -> scale
  Stream #2:0 (aac) -> concat:in1:a0
  Stream #2:1 (h264) -> scale
  concat:out:v0 -> Stream #0:0 (libx264)
  concat:out:a0 -> Stream #0:1 (aac)
Press [q] to stop, [?] for help
[h264 @ 0x55b59ff3ecc0] Reinit context to 1280x720, pix_fmt: yuv420p
[h264 @ 0x55b5a0341900] Reinit context to 1280x720, pix_fmt: yuv420p
[Parsed_scale_0 @ 0x55b5a12dc0c0] w:1280 h:720 flags:'bilinear' interl:0
[Parsed_scale_2 @ 0x55b5a00895c0] w:1280 h:720 flags:'bilinear' interl:0
[Parsed_scale_4 @ 0x55b5a12e5500] w:1280 h:720 flags:'bilinear' interl:0
[graph 0 input from stream 0:1 @ 0x55b5a12e9c40] w:1280 h:720 pixfmt:yuv420p tb:1/25000 fr:25/1 sar:1/1 sws_param:flags=2
[graph 0 input from stream 1:0 @ 0x55b5a12eacc0] w:1920 h:1080 pixfmt:rgba tb:1/25 fr:25/1 sar:2835/2835 sws_param:flags=2
[graph 0 input from stream 2:1 @ 0x55b5a12ebd40] w:1280 h:720 pixfmt:yuv420p tb:1/25000 fr:25/1 sar:1/1 sws_param:flags=2
[graph_0_in_0_0 @ 0x55b5a12ecd00] tb:1/48000 samplefmt:fltp samplerate:48000 chlayout:0x3
[graph_0_in_2_0 @ 0x55b5a12ede40] tb:1/44100 samplefmt:fltp samplerate:44100 chlayout:0x3
[Parsed_concat_7 @ 0x55b5a12e7cc0] auto-inserting filter 'auto_resampler_0' between the filter 'graph_0_in_2_0' and the filter 'Parsed_concat_7'
[Parsed_scale_0 @ 0x55b5a12dc0c0] w:1280 h:720 fmt:yuv420p sar:1/1 -> w:1280 h:720 fmt:yuv420p sar:1/1 flags:0x2
[Parsed_setsar_1 @ 0x55b5a12dc300] w:1280 h:720 sar:1/1 dar:16/9 -> sar:1/1 dar:16/9
[Parsed_scale_2 @ 0x55b5a00895c0] w:1920 h:1080 fmt:rgba sar:2835/2835 -> w:1280 h:720 fmt:yuva420p sar:1/1 flags:0x2
[Parsed_setsar_3 @ 0x55b5a12e4b00] w:1280 h:720 sar:1/1 dar:16/9 -> sar:1/1 dar:16/9
[Parsed_overlay_6 @ 0x55b5a12e6b80] main w:1280 h:720 fmt:yuv420p overlay w:1280 h:720 fmt:yuva420p
[Parsed_overlay_6 @ 0x55b5a12e6b80] [framesync @ 0x55b5a12e6ca8] Selected 1/25000 time base
[Parsed_overlay_6 @ 0x55b5a12e6b80] [framesync @ 0x55b5a12e6ca8] Sync level 2
[Parsed_scale_4 @ 0x55b5a12e5500] w:1280 h:720 fmt:yuv420p sar:1/1 -> w:1280 h:720 fmt:yuv420p sar:1/1 flags:0x2
[Parsed_setsar_5 @ 0x55b5a12e5fc0] w:1280 h:720 sar:1/1 dar:16/9 -> sar:1/1 dar:16/9
[auto_resampler_0 @ 0x55b5a12f5b00] ch:2 chl:stereo fmt:fltp r:44100Hz -> ch:2 chl:stereo fmt:fltp r:48000Hz
[libx264 @ 0x55b59ffa5240] using SAR=1/1
[libx264 @ 0x55b59ffa5240] using cpu capabilities: MMX2 SSE2Fast SSSE3 SSE4.2 AVX FMA3 BMI2 AVX2
[libx264 @ 0x55b59ffa5240] profile High, level 3.1
[libx264 @ 0x55b59ffa5240] 264 - core 155 r2917 0a84d98 - H.264/MPEG-4 AVC codec - Copyleft 2003-2018 - http://www.videolan.org/x264.html - options: cabac=1 ref=1 deblock=1:0:0 analyse=0x3:0x113 me=hex subme=2 psy=1 psy_rd=1.00:0.00 mixed_ref=0 me_range=16 chroma_me=1 trellis=0 8x8dct=1 cqm=0 deadzone=21,11 fast_pskip=1 chroma_qp_offset=0 threads=22 lookahead_threads=5 sliced_threads=0 nr=0 decimate=1 interlaced=0 bluray_compat=0 constrained_intra=0 bframes=3 b_pyramid=2 b_adapt=1 b_bias=0 direct=1 weightb=1 open_gop=0 weightp=1 keyint=250 keyint_min=25 scenecut=40 intra_refresh=0 rc_lookahead=10 rc=crf mbtree=1 crf=18.0 qcomp=0.60 qpmin=0 qpmax=69 qpstep=4 ip_ratio=1.40 aq=1:1.00
Output #0, mp4, to '/var/www/html/project/media/video/watermarks/Incendio_Prova.mp4':
  Metadata:
    major_brand     : mp42
    minor_version   : 1
    compatible_brands: isommp41mp42
    encoder         : Lavf58.29.100
    Stream #0:0: Video: h264 (libx264), 1 reference frame (avc1 / 0x31637661), yuv420p(progressive), 1280x720 [SAR 1:1 DAR 16:9], q=-1--1, 25 fps, 12800 tbn, 25 tbc (default)
    Metadata:
      encoder         : Lavc58.54.100 libx264
    Side data:
      cpb: bitrate max/min/avg: 0/0/0 buffer size: 0 vbv_delay: -1
    Stream #0:1: Audio: aac (LC) (mp4a / 0x6134706D), 48000 Hz, stereo, fltp, delay 1024, 128 kb/s (default)
    Metadata:
      encoder         : Lavc58.54.100 aac
[Parsed_concat_7 @ 0x55b5a12e7cc0] EOF on in0:a0, 1 streams left in segment.
[Parsed_overlay_6 @ 0x55b5a12e6b80] [framesync @ 0x55b5a12e6ca8] Sync level 0
[Parsed_concat_7 @ 0x55b5a12e7cc0] EOF on in0:v0, 0 streams left in segment.
[Parsed_concat_7 @ 0x55b5a12e7cc0] Segment finished at pts=18046666
[Parsed_concat_7 @ 0x55b5a12e7cc0] EOF on in1:v0, 1 streams left in segment.
[Parsed_concat_7 @ 0x55b5a12e7cc0] EOF on in1:a0, 0 streams left in segment.
[Parsed_concat_7 @ 0x55b5a12e7cc0] Segment finished at pts=20065353
No more output streams to write to, finishing.
frame=  501 fps=159 q=-1.0 Lsize=    9082kB time=00:00:20.07 bitrate=3706.2kbits/s speed=6.39x    
[AVIOContext @ 0x55b59ff12ec0] Statistics: 0 seeks, 7 writeouts
video:8759kB audio:307kB subtitle:0kB other streams:0kB global headers:0kB muxing overhead: 0.178478%
Input file #0 (/var/www/html/project/media/video/original/Incendio_Prova.mp4):
  Input stream #0:0 (audio): 848 packets read (180029 bytes); 846 frames decoded (866240 samples); 
  Input stream #0:1 (video): 451 packets read (9142242 bytes); 451 frames decoded; 
  Total: 1299 packets (9322271 bytes) demuxed
Input file #1 (/var/www/html/project/static/images/templates/logo.png):
  Input stream #1:0 (video): 1 packets read (111578 bytes); 1 frames decoded; 
  Total: 1 packets (111578 bytes) demuxed
Input file #2 (/var/www/html/project/static/images/templates/Codino.mp4):
  Input stream #2:0 (audio): 89 packets read (26579 bytes); 87 frames decoded (89024 samples); 
  Input stream #2:1 (video): 50 packets read (203365 bytes); 50 frames decoded; 
  Total: 139 packets (229944 bytes) demuxed
Output file #0 (/var/www/html/project/media/video/watermarks/Incendio_Prova.mp4):
  Output stream #0:0 (video): 501 frames encoded; 501 packets muxed (8969292 bytes); 
  Output stream #0:1 (audio): 941 frames encoded (963137 samples); 942 packets muxed (314180 bytes); 
  Total: 1443 packets (9283472 bytes) muxed
[AVIOContext @ 0x55b59ff5c800] Statistics: 2 seeks, 39 writeouts
[libx264 @ 0x55b59ffa5240] frame I:5     Avg QP:13.00  size: 63247
[libx264 @ 0x55b59ffa5240] frame P:207   Avg QP:17.23  size: 27447
[libx264 @ 0x55b59ffa5240] frame B:289   Avg QP:19.34  size: 10280
[libx264 @ 0x55b59ffa5240] consecutive B-frames:  5.2% 52.7%  3.0% 39.1%
[libx264 @ 0x55b59ffa5240] mb I  I16..4: 28.9% 29.5% 41.6%
[libx264 @ 0x55b59ffa5240] mb P  I16..4:  9.7% 27.3%  5.1%  P16..4: 21.5% 12.7%  8.4%  0.0%  0.0%    skip:15.3%
[libx264 @ 0x55b59ffa5240] mb B  I16..4:  2.6%  5.9%  0.4%  B16..8: 28.3% 11.3%  1.6%  direct:14.9%  skip:34.8%  L0:43.1% L1:44.3% BI:12.6%
[libx264 @ 0x55b59ffa5240] 8x8 transform intra:63.7% inter:54.4%
[libx264 @ 0x55b59ffa5240] coded y,uvDC,uvAC intra: 61.4% 82.5% 21.7% inter: 16.2% 39.0% 0.8%
[libx264 @ 0x55b59ffa5240] i16 v,h,dc,p: 49% 17% 21% 13%
[libx264 @ 0x55b59ffa5240] i8 v,h,dc,ddl,ddr,vr,hd,vl,hu: 29% 22% 20%  4%  5%  6%  5%  5%  5%
[libx264 @ 0x55b59ffa5240] i4 v,h,dc,ddl,ddr,vr,hd,vl,hu: 28% 23% 11%  5%  7%  7%  7%  6%  6%
[libx264 @ 0x55b59ffa5240] i8c dc,h,v,p: 44% 19% 25% 12%
[libx264 @ 0x55b59ffa5240] Weighted P-Frames: Y:5.3% UV:1.4%
[libx264 @ 0x55b59ffa5240] kb/s:3580.28
[aac @ 0x55b59ff3bdc0] Qavg: 2452.054
[AVIOContext @ 0x55b59ff1be40] Statistics: 29664810 bytes read, 869 seeks
[AVIOContext @ 0x55b59ff19e40] Statistics: 111578 bytes read, 0 seeks
[AVIOContext @ 0x55b59ff657c0] Statistics: 1530915 bytes read, 42 seeks
